<svg xmlns="http://www.w3.org/2000/svg" viewBox="0 0 500 500"><defs><style>.a{fill:#6ca926;}.b{fill:#fff;}</style></defs><title>Tekengebied 1</title><path class="a" d="M337,6.14,238.44,279.9l-47.2-147.83H121L199.63,334a73.58,73.58,0,0,1,0,53.45c-8.79,22.53-23.41,41.81-59,46.6v59.85c69.38,0,106.88-42.65,140.35-136.12L412.1,6.14Z"/><path class="b" d="M140.59,500h-6.14V428.63l5.32-.71c34.84-4.68,46.92-24.23,54.13-42.74a67.32,67.32,0,0,0,0-49L112.05,125.93h83.68L238.79,260.8,332.68,0h88.26L286.69,359.88c-17.88,49.95-36.35,83.44-58.11,105.3C205,488.94,177,500,140.59,500Zm6.14-60.75V487.6c29.94-1.18,53.31-11.14,73.15-31.08,20.43-20.54,38-52.59,55.27-100.85L403.25,12.28H341.31L238.09,299,186.75,138.21H130l75.34,193.52a79.56,79.56,0,0,1,0,57.91C197.68,409.3,184.08,432.39,146.73,439.25Z"/></svg>