<svg xmlns="http://www.w3.org/2000/svg" viewBox="0 0 805 697.37"><defs><style>.a,.b{fill:#fff;}.b,.c{stroke:#fff;stroke-miterlimit:10;}.b{stroke-width:10px;}.c{fill:none;stroke-width:12px;}</style></defs><title>logo2</title><path class="a" d="M208.46,311.24a94.42,94.42,0,0,0-83.13-48.53c-19.16,0-36.15,3.57-50.51,10.59l-.92.44a92.48,92.48,0,0,0-35,31.18C20.44,332,11.1,371.65,11.08,422.81l6.56,248.56,13.9-19.32,176-244.7a94.77,94.77,0,0,0,13.56-49.12A96.84,96.84,0,0,0,208.46,311.24Z" transform="translate(-11.08 -6.31)"/><path class="a" d="M653.37,246.88H397.76c-1.17,53.54-9.58,105.43-30.31,156,6.49,6,14.51,10.89,25.19,10.89a30.42,30.42,0,0,0,23.61-11.21c15.11,21.26,48.22,14.91,54.43-10.31,16,18.28,46.08,9.31,49.51-14.63l.2.12c20,15.89,49.83-.92,45.69-26.78,24.18,13.79,51.63-12.08,39.65-37,0-.22,0-.36,0-.44,21.19,7.33,39.78-16,28.14-35C644.69,277.24,658.74,267.37,653.37,246.88Z" transform="translate(-11.08 -6.31)"/><path class="a" d="M231.76,156.44C224.27,156.44,226,182,209,182c0,18.36,22.76,41.73,22.76,41.73S255,200.34,255,182C238,182,239.24,156.44,231.76,156.44Z" transform="translate(-11.08 -6.31)"/><circle class="b" cx="150.23" cy="132.15" r="11.19"/><circle class="b" cx="291.6" cy="132.15" r="11.19"/><path class="a" d="M340.89,202.43c-1.44,2.2-2.93,4.38-4.5,6.49A131.62,131.62,0,0,1,291.66,247a130.7,130.7,0,0,1-161-33.63,132.17,132.17,0,0,1-7.92-10.8c-3.34-.17-6.64-.37-9.87-.64a211.94,211.94,0,0,1-28-4c-2.59,20.74-4.24,40.33-5.21,59,14.92-6.54,32.23-10,52.05-10a105.5,105.5,0,0,1,74.83,30.33l0,0a107.25,107.25,0,0,1,10.71,12.25l1.06,1.44a110.7,110.7,0,0,1,7.74,12.32c.52,1,1,1.93,1.51,2.9q1.16,2.29,2.21,4.64c.46,1,.91,2.09,1.34,3.15.75,1.83,1.44,3.7,2.09,5.57.18.55.37,1.09.55,1.64.55,1.66,1.05,3.34,1.52,5a107.1,107.1,0,0,1,3.81,24.55c0,1.16.07,2.32.07,3.48s0,2.32,0,3.48-.08,2.33-.16,3.5c-.14,2.33-.37,4.67-.67,7s-.69,4.67-1.15,7a103.43,103.43,0,0,1-2.66,10.46c-.71,2.32-1.51,4.62-2.4,6.92a109.6,109.6,0,0,1-8.31,16.94L13.29,702.19l-.36.7C79.64,670.12,134.79,637,180.22,603.33l-.56,45.27,50.6,11.06c10.44,2.74,17.19,21,1.65,14.21-10.08-4.43-19-9.94-28.93-9.3-14.69.93-27.92,12.51-23.35,26.3,2.46,7.39,9.11,12.82,9.11,12.82s-2.29-32.92,34.46-5.77l84.7.2c35.3-29.77,30.13,5.57,30.13,5.57s9-6.48,12.48-15c5.25-12.85-4.15-23.6-22.23-23.6-19.31,0-31.8,14.62-51.75,8.42-18.53-5.75-77.46-65.77-1.56-155l-2.42,1.88c34.36-38.43,58.5-77.58,74.9-117.58,20.73-50.53,29.14-102.42,30.31-156,.36-16,.05-32.22-.77-48.56a212.84,212.84,0,0,1-24.91,3.4C348.44,202,344.69,202.25,340.89,202.43Z" transform="translate(-11.08 -6.31)"/><path class="a" d="M111.31,82.83a61.33,61.33,0,0,1,53.48-31.27,55.33,55.33,0,0,1,35.85,12.53c8.23,6.69,15.29,16.14,21,28.09,1.42-.24,2.87-.44,4.33-.58,2.09-.21,4.22-.31,6.32-.31,1.8,0,3.61.07,5.39.22,1.08.09,2.14.22,3.2.37,5.67-12.47,12.77-22.31,21.1-29.25a54.83,54.83,0,0,1,36-12.82,60.87,60.87,0,0,1,37,12.42,61.88,61.88,0,0,1,17.38,20.58q4.59.33,9.27.78c1.83.17,3.7.36,5.65.57,3-39.1,27.83-64.49,34.38-66l-80.17,11.1c-20.1-14.43-59.29-22.93-85.92-22.93s-66.93,8.5-87,22.93L63.38,18.06C72.92,23,91.63,46.2,98.05,84l5-.49C105.83,83.25,108.58,83,111.31,82.83Z" transform="translate(-11.08 -6.31)"/><path class="c" d="M67.74,112.74a8.14,8.14,0,0,1,6.77-8.63c44.32-7.49,84.64-8.71,130.38-.09a8.22,8.22,0,0,1,6.7,8.42c-.91,22.05-7.75,44-15.71,63.79a11.46,11.46,0,0,1-9.2,7.1c-40.66,5.2-80.13,2.6-100.36-3.37C76.87,166.89,69.5,136.35,67.74,112.74Z" transform="translate(-11.08 -6.31)"/><path class="c" d="M396.26,112.74a8.14,8.14,0,0,0-6.77-8.63c-44.32-7.49-84.63-8.71-130.37-.09a8.23,8.23,0,0,0-6.71,8.43c.86,20.41,6.9,41.83,15.71,63.78a11.46,11.46,0,0,0,9.2,7.1c36.11,4.62,78.16,3.18,100.36-3.37C387.13,166.89,394.5,136.35,396.26,112.74Z" transform="translate(-11.08 -6.31)"/><path class="c" d="M252.41,112.45c-10.77-7.09-29.42-6.9-40.82,0" transform="translate(-11.08 -6.31)"/><path class="a" d="M592.4,366.79c43.6,43.61,141.23,75.53,169,49.68L622.1,335.63C619.55,351.33,607,363.63,592.4,366.79Z" transform="translate(-11.08 -6.31)"/><path class="a" d="M543.82,397.75c27.77,53.26,81.67,95.11,126.28,81.63L576.77,373.84C571.35,387.74,557.9,396.79,543.82,397.75Z" transform="translate(-11.08 -6.31)"/><path class="a" d="M506.17,415.44a38.14,38.14,0,0,1-18.05.93c11.31,45.38,36.87,87.08,73.74,85.07l-36.74-98.72A37.73,37.73,0,0,1,506.17,415.44Z" transform="translate(-11.08 -6.31)"/><path class="a" d="M444.21,429.34a39.5,39.5,0,0,1-15.23-3c0,37.89,17.92,69.47,49,72.74l-10.75-76.83a40.17,40.17,0,0,1-15.38,6.4A41.18,41.18,0,0,1,444.21,429.34Z" transform="translate(-11.08 -6.31)"/><path class="a" d="M373.52,423.55c-1.8,27.45,11.26,58.38,36.84,66l-.23-64.46C398.45,429.53,385.39,427.78,373.52,423.55Z" transform="translate(-11.08 -6.31)"/><path class="a" d="M632.64,324.32c66.47,31.81,161.51,40.85,174.55,7.12L651.36,292.79A33.74,33.74,0,0,1,632.64,324.32Z" transform="translate(-11.08 -6.31)"/><path class="a" d="M657.13,281.58c75,10.09,157.21.5,159-34.7H665.92C669.73,261.61,665.76,273.71,657.13,281.58Z" transform="translate(-11.08 -6.31)"/></svg>