<svg xmlns="http://www.w3.org/2000/svg" xmlns:xlink="http://www.w3.org/1999/xlink" viewBox="0 0 790 697.37"><defs><style>.a{fill:url(#a);}.b{fill:url(#b);}.c{fill:url(#c);}.d{fill:url(#d);}.e{fill:#084a67;}.f{fill:#1e93d1;}.g{fill:#fec228;}.h{fill:url(#e);}.i{fill:#fff;}.i,.j{stroke:#77b227;stroke-miterlimit:10;stroke-width:11.01px;}.j{fill:none;}</style><linearGradient id="a" x1="331.14" y1="252.14" x2="578.02" y2="366.85" gradientUnits="userSpaceOnUse"><stop offset="0" stop-color="#145795"/><stop offset="0.09" stop-color="#1768a6"/><stop offset="0.23" stop-color="#1a7bb9"/><stop offset="0.4" stop-color="#1c89c7"/><stop offset="0.61" stop-color="#1e91cf"/><stop offset="1" stop-color="#1e93d1"/></linearGradient><linearGradient id="b" x1="633.38" y1="242.81" x2="633.38" y2="409.88" xlink:href="#a"/><linearGradient id="c" x1="632.73" y1="242.81" x2="632.73" y2="409.88" xlink:href="#a"/><linearGradient id="d" x1="633.09" y1="249.33" x2="633.09" y2="267.9" xlink:href="#a"/><linearGradient id="e" x1="160.89" y1="252.1" x2="12.86" y2="702.81" xlink:href="#a"/></defs><title>YoastCon_Owl_Blue</title><path class="a" d="M633.37,246.88H328L326.88,382c10.21,4.68,20.63,31.77,45.76,31.77a30.42,30.42,0,0,0,23.61-11.21c15.11,21.26,48.22,14.91,54.43-10.31,16,18.28,46.08,9.31,49.51-14.63l.2.12c20,15.89,49.83-.92,45.69-26.78,24.18,13.79,51.63-12.08,39.65-37,0-.22,0-.36,0-.44,21.19,7.33,39.78-16,28.14-35C624.69,277.24,638.74,267.37,633.37,246.88Z" transform="translate(-5 -6.31)"/><path class="b" d="M633.66,257.05c-.18.53-.35,1.05-.57,1.56C633.3,258.1,633.5,257.58,633.66,257.05Z" transform="translate(-5 -6.31)"/><path class="c" d="M633.09,258.62c-.22.5-.47,1-.71,1.48C632.64,259.61,632.88,259.12,633.09,258.62Z" transform="translate(-5 -6.31)"/><path class="d" d="M633.09,258.61h0Z" transform="translate(-5 -6.31)"/><path class="e" d="M401.73,18.14l.58-.08A2.59,2.59,0,0,0,401.73,18.14Z" transform="translate(-5 -6.31)"/><path class="e" d="M401.73,18.14l-80.17,11.1c-20.1-14.43-59.29-22.93-85.92-22.93s-66.93,8.5-87,22.93L63.38,18.06c11.63,6,36.92,39.15,36.92,92.84-61.08,266.68,39.21,352.44-87.37,592C79.64,670.12,134.78,637,180.22,603.32l-.56,45.28,50.6,11.06c10.44,2.74,17.19,21,1.65,14.21-10.08-4.43-19-9.94-28.93-9.3-14.69.93-27.92,12.51-23.35,26.3,2.46,7.39,9.11,12.82,9.11,12.82s-2.29-32.92,34.46-5.77l84.7.2c35.3-29.77,30.13,5.57,30.13,5.57s9-6.48,12.48-15c5.25-12.85-4.15-23.6-22.23-23.6-19.31,0-31.8,14.62-51.75,8.42-18.34-5.69-76.28-65.58-3.75-153.35,113.35-127,115.08-261.67,96-409.27C358.94,57,393.78,20,401.73,18.14Z" transform="translate(-5 -6.31)"/><path class="f" d="M112,104.93a53.4,53.4,0,0,1,52.79-45.37c49.51,0,63,63.8,67.06,112.85h0C235.39,123,248.12,57.81,298,57.81a53.43,53.43,0,0,1,51.18,38.13c23.37,78.5-35.51,157.5-117.41,157.5C155.66,253.44,95.74,184,112,104.93Z" transform="translate(-5 -6.31)"/><path class="g" d="M231.69,159.93c-6.49,0-5,22.13-19.72,22.13,0,15.9,19.72,36.15,19.72,36.15s20.13-20.25,20.13-36.15C237.1,182.06,238.17,159.93,231.69,159.93Z" transform="translate(-5 -6.31)"/><path class="h" d="M223.77,409.54c42.63-70.87-8.19-162.66-92.08-162.66C43.45,246.88,5,315,5,421.3l7.44,282.07Z" transform="translate(-5 -6.31)"/><path class="e" d="M571.31,366.79c43.61,43.61,141.24,75.53,169,49.68L601,335.63C598.47,351.33,585.9,363.63,571.31,366.79Z" transform="translate(-5 -6.31)"/><path class="e" d="M522.74,397.75C550.5,451,604.4,492.86,649,479.38L555.69,373.84C550.27,387.74,536.82,396.79,522.74,397.75Z" transform="translate(-5 -6.31)"/><path class="e" d="M485.08,415.44a38.13,38.13,0,0,1-18.05.93c11.32,45.38,36.87,87.08,73.75,85.07L504,402.72A37.69,37.69,0,0,1,485.08,415.44Z" transform="translate(-5 -6.31)"/><path class="e" d="M423.13,429.34a39.47,39.47,0,0,1-15.23-3c0,37.89,17.92,69.47,49.05,72.74L446.2,422.21a40.3,40.3,0,0,1-15.38,6.4A41.18,41.18,0,0,1,423.13,429.34Z" transform="translate(-5 -6.31)"/><path class="e" d="M352.44,423.55c-1.8,27.45,11.25,58.38,36.84,66l-.23-64.46C377.36,429.53,364.31,427.78,352.44,423.55Z" transform="translate(-5 -6.31)"/><path class="e" d="M611.56,324.32c66.46,31.81,161.5,40.85,174.54,7.12L630.27,292.79A33.74,33.74,0,0,1,611.56,324.32Z" transform="translate(-5 -6.31)"/><path class="e" d="M636.05,281.58c75,10.09,157.2.5,159-34.7H644.84C648.65,261.61,644.68,273.71,636.05,281.58Z" transform="translate(-5 -6.31)"/><path class="i" d="M67.1,112.49a8.14,8.14,0,0,1,6.78-8.63c44.31-7.49,84.63-8.71,130.37-.09a8.22,8.22,0,0,1,6.71,8.42c-.92,22.05-7.76,44-15.72,63.79a11.46,11.46,0,0,1-9.19,7.1c-40.67,5.2-80.14,2.6-100.36-3.37C76.24,166.64,68.86,136.1,67.1,112.49Z" transform="translate(-5 -6.31)"/><path class="i" d="M395.63,112.49a8.14,8.14,0,0,0-6.78-8.63c-44.31-7.49-84.63-8.71-130.37-.09a8.23,8.23,0,0,0-6.71,8.43c.87,20.41,6.9,41.83,15.72,63.78a11.46,11.46,0,0,0,9.19,7.1c36.11,4.62,78.17,3.18,100.36-3.37C386.49,166.64,393.87,136.1,395.63,112.49Z" transform="translate(-5 -6.31)"/><path class="j" d="M251.77,112.2c-10.77-7.09-29.41-6.9-40.82,0" transform="translate(-5 -6.31)"/><circle class="e" cx="155.68" cy="132.15" r="11.19"/><circle class="e" cx="297.05" cy="132.15" r="11.19"/></svg>